<?xml version="1.0" encoding="utf-8"?>
<!-- Generator: Adobe Illustrator 19.2.1, SVG Export Plug-In . SVG Version: 6.00 Build 0)  -->
<svg version="1.1" id="layer" xmlns="http://www.w3.org/2000/svg" xmlns:xlink="http://www.w3.org/1999/xlink" x="0px" y="0px"
	 viewBox="0 0 652 652" style="enable-background:new 0 0 652 652;" xml:space="preserve">
<style type="text/css">
	.st0{fill:#004A84;}
	.st1{fill-rule:evenodd;clip-rule:evenodd;fill:#BC893A;}
	.st2{fill:#BC893A;}
</style>
<path class="st0" d="M112.7,444.5c-47.6,0-86.3-53-86.3-118.4c0-65.4,38.7-118.5,86.3-118.5c47.7,0,86.4,53,86.4,118.5
	C199.1,391.5,160.5,444.5,112.7,444.5"/>
<path class="st1" d="M163.1,325.2c3.8-5.6,5.9-11.9,4.8-20c-3.1-24.8-25.6-28.9-31.7-29.6c-4.5-33.1-9.9-53-10-53.4l-1.8-6.6
	l-1.8,6.6c-0.1,0.4-5.3,19.5-9.8,51.3c-4.4-31.8-9.6-50.9-9.7-51.3l-1.8-6.6l-1.9,6.6c-0.1,0.4-5.5,20.4-10,53.4
	c-6.2,0.7-28.6,4.9-31.7,29.6c-1,8.2,1.1,14.5,5,20.1c-5.7,5.6-9.3,13.2-9.7,21.8c-0.4,9.3,3.1,18.4,9.8,24.9c0,0.1,0.2,0.3,0.2,0.3
	c1.2,1.4,2.5,2.6,3.7,3.8c7.7,7.7,14.5,14.6,19,44.1c0.4,4.5,0.8,9.2,1.8,19.1l4.4,1.7c-1.2-11.2-1.8-16.5-2.5-21.2
	c-2.1-24.8-2.5-48.3-2-69.7c7.5,7.6,14.6,16.8,19.3,30c0.4,18.2,1.6,37.4,3.8,57.5c0.1,0.6,0.2,1.2,0.3,7l4.5,0
	c0-5.8,0.1-6.4,0.1-7.1c2.2-20,3.4-39.3,3.8-57.5c4.8-13.2,11.9-22.4,19.3-30c0.5,22.7,0,47.5-2.4,73.9c-0.5,3.7-0.9,7.6-2.1,17.1
	l4.5-1.8c1.1-8.7,1.1-11.7,1.4-14.9c4.4-33.1,11.5-40.2,19.6-48.2c1.2-1.2,2.4-2.4,3.7-3.8l0.2-0.2l0-0.1
	c6.7-6.5,10.2-15.6,9.8-24.9C172.6,338.7,169.1,331,163.1,325.2 M69.2,373.4c-1.1-1.1-2.3-2.3-3.4-3.4l0,0c0-0.1-0.3-0.3-0.3-0.3
	c-6.1-5.8-9.3-13.9-8.9-22.3c0.3-7.4,3.4-14,8.2-18.9c3.3,4,7.5,7.8,11.9,11.7c2.2,2,4.5,4,6.7,6.2c-0.4,15.6-0.4,32.2,0.4,49.7
	C79.8,383.9,74.7,378.9,69.2,373.4 M83.7,341.3c-1.5-1.4-2.9-2.7-4.3-4c-4.4-4-8.5-7.6-11.6-11.5c4.8-3.7,10.7-6,17.2-6.2
	C84.3,326.6,83.9,333.8,83.7,341.3 M85.1,315.9c-7.4,0.1-14.2,2.6-19.6,6.9c-3.2-4.9-5-10.3-4.1-17.2c2.6-21.2,21-25.5,27.5-26.2
	C87.4,290.3,86.1,302.6,85.1,315.9 M88.8,317.2c3.1-42.1,9.3-73,12.4-86.5c2.3,10.2,6.5,30.3,9.7,57.7c-2.7,22.9-4.7,50.7-4.5,81.9
	c-5.3-10.9-12.3-18.9-19-25.5c0.3-9,0.8-17.8,1.4-26.1L88.8,317.2z M115.2,379.7c-0.9,2.6-1.8,5.2-2.5,8.1c-0.7-2.9-1.5-5.5-2.4-8.1
	c-0.6-26.8,0.6-51.3,2.4-72.6C114.7,328.4,115.7,352.9,115.2,379.7 M119.1,370.3c0.2-31.2-1.7-59-4.4-81.9
	c3.2-27.4,7.3-47.5,9.7-57.7c3.7,16.3,12,58.2,13.8,114.1C131.4,351.4,124.5,359.4,119.1,370.3 M136.8,279.4
	c6.4,0.8,24.7,5,27.4,26.2c0.8,6.8-0.8,12.2-4,17.1c-5.7-4.4-12.5-6.8-19.7-6.8C139.4,302.6,138.2,290.3,136.8,279.4 M157.9,325.7
	c-3.1,3.9-7.2,7.6-11.7,11.6c-1.4,1.2-2.8,2.6-4.4,4c-0.3-7.5-0.6-14.7-1.1-21.7C147,319.7,153,321.9,157.9,325.7 M160.3,369.6
	l-0.3,0.3l0,0.1c-1.2,1.2-2.3,2.3-3.4,3.4c-5.6,5.6-10.8,10.8-15,23.4c0.8-17.7,0.9-34.6,0.4-50.5c2.3-2.2,4.6-4.2,6.7-6.2
	c4.5-4,8.7-7.8,12-11.9c5.1,5.1,8,11.8,8.4,19C169.5,355.7,166.3,363.7,160.3,369.6"/>
<path class="st0" d="M228.7,388.2h384.6v2.5H228.7V388.2z M231.5,406.4c0,2.9,0.7,4.2,1.7,5.2c1.4,1.3,3.4,1.4,4,1.4
	c1.2,0,2.6-0.2,4-1.5c1.6-1.4,1.8-3.7,1.8-5.9v-2.1c0-3.1,0-3.6,0-4.2c0-0.7,0.2-1,0.7-1.1c0.2,0,0.4-0.1,0.5-0.1
	c0.1,0,0.2,0,0.2-0.1c0-0.1-0.1-0.2-0.3-0.2c-0.6,0-1.5,0.1-1.6,0.1c-0.1,0-1.2-0.1-2.1-0.1c-0.2,0-0.3,0-0.3,0.2
	c0,0.1,0.1,0.1,0.2,0.1c0.2,0,0.5,0,0.7,0.1c0.6,0.1,0.8,0.4,0.8,1.1c0,0.6,0,1.2,0,4.2v2.5c0,2-0.2,3.7-1.1,4.8
	c-0.7,0.8-1.9,1.4-3.1,1.4c-1.1,0-2-0.2-3-1.1c-0.8-0.8-1.5-2-1.5-4.8v-2.7c0-3.1,0-3.6,0-4.2c0-0.7,0.2-1,0.7-1.1
	c0.2,0,0.4-0.1,0.5-0.1c0.1,0,0.2,0,0.2-0.1c0-0.1-0.1-0.2-0.3-0.2c-0.6,0-1.8,0.1-1.9,0.1c-0.2,0-1.4-0.1-2.3-0.1
	c-0.2,0-0.3,0-0.3,0.2c0,0.1,0.1,0.1,0.2,0.1c0.2,0,0.5,0,0.7,0.1c0.6,0.1,0.8,0.4,0.8,1.1c0,0.6,0,1.2,0,4.2V406.4z M249.2,400.6
	c0.6,0.7,2.8,3.2,5.1,5.6c2.1,2.2,4.9,5.1,5.1,5.3c1,1,1.3,1.3,1.4,1.3c0.1,0,0.2-0.1,0.2-1.4l0-11.5c0-1.2,0.1-1.6,0.7-1.7
	c0.2-0.1,0.4-0.1,0.5-0.1c0.1,0,0.2-0.1,0.2-0.1c0-0.1-0.1-0.1-0.3-0.1c-0.8,0-1.5,0.1-1.7,0.1c-0.2,0-1.2-0.1-2-0.1
	c-0.2,0-0.4,0-0.4,0.1c0,0.1,0,0.1,0.1,0.1c0.2,0,0.6,0,1,0.1c0.6,0.2,0.7,0.6,0.8,1.9l0.2,10c-0.6-0.6-2.8-3-4.7-5.1
	c-3-3.2-5.9-6.4-6.2-6.7c-0.2-0.2-0.5-0.6-0.7-0.6c-0.2,0-0.2,0.2-0.2,1l0,11.2c0,1.8-0.1,2.3-0.6,2.5c-0.3,0.1-0.6,0.1-0.8,0.1
	c-0.1,0-0.2,0-0.2,0.1c0,0.1,0.1,0.2,0.3,0.2c0.9,0,1.7-0.1,1.9-0.1c0.2,0,1,0.1,2.1,0.1c0.2,0,0.3,0,0.3-0.2c0-0.1-0.1-0.1-0.2-0.1
	c-0.2,0-0.6,0-1-0.1c-0.5-0.2-0.7-0.7-0.8-2.3L249.2,400.6z M269.1,403.5c0-3.1,0-3.6,0-4.2c0-0.7,0.2-1,0.7-1.1
	c0.2,0,0.3-0.1,0.5-0.1c0.1,0,0.2,0,0.2-0.1c0-0.1-0.1-0.2-0.3-0.2c-0.6,0-1.8,0.1-1.9,0.1c-0.1,0-1.3-0.1-2-0.1
	c-0.2,0-0.3,0-0.3,0.2c0,0.1,0.1,0.1,0.2,0.1c0.1,0,0.4,0,0.6,0.1c0.4,0.1,0.6,0.4,0.7,1.1c0,0.6,0,1.2,0,4.2v3.5
	c0,1.9,0,3.4-0.1,4.2c-0.1,0.6-0.2,1-0.6,1.1c-0.2,0-0.4,0.1-0.6,0.1c-0.1,0-0.2,0.1-0.2,0.1c0,0.1,0.1,0.2,0.3,0.2
	c0.6,0,1.8-0.1,1.9-0.1c0.1,0,1.3,0.1,2.4,0.1c0.2,0,0.3-0.1,0.3-0.2c0-0.1,0-0.1-0.2-0.1c-0.2,0-0.6,0-0.9-0.1
	c-0.6-0.1-0.7-0.5-0.8-1.1c-0.1-0.8-0.1-2.4-0.1-4.2V403.5z M276.6,400.2c-0.3-0.8-0.5-1.4-0.5-1.6c0-0.1,0-0.3,0.3-0.4
	c0.2-0.1,0.5-0.1,0.7-0.1c0.1,0,0.2,0,0.2-0.1s-0.2-0.1-0.5-0.1c-0.7,0-1.6,0.1-1.8,0.1c-0.2,0-1.3-0.1-2.3-0.1
	c-0.3,0-0.5,0-0.5,0.1c0,0.1,0,0.1,0.2,0.1c0.1,0,0.4,0,0.7,0.1c0.7,0.2,1,0.4,1.4,1.5l4.8,12c0.4,0.9,0.5,1.2,0.7,1.2
	c0.2,0,0.3-0.3,0.8-1.5c0.4-1,1.3-3.1,2.5-5.9c1-2.4,2-4.8,2.2-5.3c0.5-1.3,0.8-1.7,1.1-1.8c0.4-0.2,0.8-0.2,0.9-0.2
	c0.2,0,0.2,0,0.2-0.1s-0.1-0.1-0.3-0.1c-0.6,0-1.4,0.1-1.5,0.1c-0.2,0-1.1-0.1-1.9-0.1c-0.3,0-0.4,0-0.4,0.2c0,0.1,0.1,0.1,0.2,0.1
	c0.2,0,0.5,0,0.7,0.1c0.2,0.1,0.3,0.3,0.3,0.4c0,0.2-0.1,0.5-0.2,0.7c-0.4,1.4-3.1,8.2-4.2,10.9L276.6,400.2z M290.6,406.9
	c0,1.9,0,3.4-0.1,4.2c-0.1,0.6-0.2,1-0.6,1.1c-0.2,0-0.4,0.1-0.6,0.1c-0.1,0-0.2,0.1-0.2,0.1c0,0.1,0.1,0.2,0.3,0.2
	c0.3,0,0.7,0,1.1,0c0.4,0,0.7,0,0.8,0c0.3,0,0.8,0,1.5,0.1c0.8,0,1.8,0.1,3.3,0.1c0.8,0,0.9,0,1.1-0.5c0.1-0.4,0.3-1.7,0.3-1.9
	c0-0.1,0-0.3-0.1-0.3c-0.1,0-0.1,0.1-0.2,0.3c-0.1,0.8-0.4,1.2-0.9,1.4c-0.5,0.2-1.4,0.2-1.9,0.2c-1.9,0-2.2-0.3-2.3-1.6
	c0-0.4,0-2.7,0-3.4v-1.7c0-0.1,0-0.1,0.1-0.1c0.3,0,2.3,0,2.8,0.1c0.8,0.1,0.9,0.4,1,0.7c0.1,0.3,0.1,0.4,0.1,0.6
	c0,0.1,0,0.2,0.1,0.2c0.1,0,0.1-0.2,0.1-0.4c0-0.1,0-0.9,0.1-1.3c0.1-0.6,0.2-1,0.2-1.1c0-0.1,0-0.2-0.1-0.2c-0.1,0-0.2,0.1-0.3,0.3
	c-0.2,0.2-0.4,0.2-0.9,0.3c-0.4,0-2.9,0-3.1,0c-0.1,0-0.1-0.1-0.1-0.2v-5.4c0-0.1,0-0.2,0.1-0.2c0.2,0,2.4,0,2.7,0.1
	c1.1,0.1,1.3,0.4,1.4,0.7c0.1,0.2,0.1,0.6,0.1,0.7c0,0.2,0,0.3,0.2,0.3c0.1,0,0.1-0.1,0.1-0.2c0-0.2,0.1-1.1,0.1-1.3
	c0.1-0.5,0.2-0.8,0.2-0.9c0-0.1,0-0.2-0.1-0.2c-0.1,0-0.2,0.1-0.3,0.1c-0.2,0-0.5,0.1-0.8,0.1c-0.4,0-4.4,0-4.5,0l-0.8,0
	c-0.4,0-1,0-1.4,0c-0.2,0-0.3,0-0.3,0.2c0,0.1,0.1,0.1,0.1,0.1c0.2,0,0.5,0,0.7,0.1c0.6,0.1,0.8,0.4,0.8,1.1c0,0.6,0,1.2,0,4.2
	V406.9z M302.6,406.9c0,1.9,0,3.4-0.1,4.2c-0.1,0.6-0.2,1-0.6,1.1c-0.2,0-0.4,0.1-0.6,0.1c-0.1,0-0.2,0.1-0.2,0.1
	c0,0.1,0.1,0.2,0.3,0.2c0.6,0,1.8-0.1,1.8-0.1c0.1,0,1.3,0.1,2.4,0.1c0.2,0,0.3-0.1,0.3-0.2c0-0.1,0-0.1-0.2-0.1
	c-0.2,0-0.6,0-0.9-0.1c-0.6-0.1-0.7-0.5-0.8-1.1c-0.1-0.8-0.1-2.4-0.1-4.2v-0.5c0-0.1,0-0.2,0.1-0.2l2.4,0c0.1,0,0.2,0,0.3,0.1
	c0.4,0.5,1.3,1.8,2.1,2.9c1.1,1.5,1.8,2.4,2.6,2.9c0.5,0.3,1,0.4,2.1,0.4h1.4c0.4,0,0.5,0,0.5-0.2c0-0.1-0.1-0.1-0.2-0.1
	c-0.1,0-0.4,0-0.8-0.1c-0.5-0.1-1.3-0.3-2.4-1.4c-1.1-1.2-2.5-3-4.1-5c1.8-1.6,2.4-3.1,2.4-4.5c0-1.4-0.9-2.3-1.3-2.7
	c-1-0.7-2.4-0.9-3.6-0.9c-0.6,0-2.1,0.1-2.3,0.1c-0.1,0-1.3-0.1-2.2-0.1c-0.2,0-0.3,0-0.3,0.2c0,0.1,0.1,0.1,0.2,0.1
	c0.2,0,0.5,0,0.7,0.1c0.6,0.1,0.8,0.4,0.8,1.1c0,0.6,0,1.2,0,4.2V406.9z M304.2,398.8c0-0.1,0.1-0.2,0.2-0.2
	c0.2-0.1,0.7-0.1,1.3-0.1c2.1,0,3.4,1.5,3.4,3.9c0,1.5-0.5,2.5-1.2,3c-0.5,0.3-1,0.4-1.5,0.4c-0.9,0-1.8-0.1-2.1-0.3
	c-0.1-0.1-0.1-0.1-0.1-0.2V398.8z M315.9,412.4c0.8,0.4,1.7,0.5,2.6,0.5c1.1,0,2.1-0.2,3-0.8c1.4-1,1.7-2.4,1.7-3.2
	c0-1.6-0.5-2.8-2.9-4.6l-0.6-0.4c-1.9-1.5-2.4-2.2-2.4-3.3c0-1.4,1.1-2.3,2.4-2.3c1.8,0,2.3,0.8,2.5,1c0.1,0.2,0.2,0.7,0.3,1
	c0,0.2,0,0.3,0.2,0.3c0.1,0,0.1-0.1,0.1-0.4c0-1.3,0.1-2,0.1-2.1c0-0.1,0-0.1-0.2-0.1c-0.2,0-0.3,0-0.7-0.1
	c-0.5-0.1-1.1-0.2-1.8-0.2c-2.5,0-4.1,1.4-4.1,3.5c0,1.3,0.5,2.5,2.5,4.2l0.9,0.7c1.7,1.4,2.3,2.2,2.3,3.5c0,1.3-0.9,2.6-2.8,2.6
	c-1.3,0-2.6-0.5-2.9-2c-0.1-0.3-0.1-0.5-0.1-0.7c0-0.2,0-0.2-0.1-0.2c-0.1,0-0.1,0.1-0.2,0.3c0,0.3-0.1,1.1-0.1,2.1
	C315.6,412.2,315.6,412.2,315.9,412.4 M330,403.5c0-3.1,0-3.6,0-4.2c0-0.7,0.2-1,0.7-1.1c0.2,0,0.3-0.1,0.5-0.1c0.1,0,0.2,0,0.2-0.1
	c0-0.1-0.1-0.2-0.3-0.2c-0.6,0-1.8,0.1-1.9,0.1c-0.1,0-1.3-0.1-2-0.1c-0.2,0-0.3,0-0.3,0.2c0,0.1,0.1,0.1,0.2,0.1
	c0.1,0,0.4,0,0.6,0.1c0.4,0.1,0.6,0.4,0.7,1.1c0,0.6,0,1.2,0,4.2v3.5c0,1.9,0,3.4-0.1,4.2c-0.1,0.6-0.2,1-0.6,1.1
	c-0.2,0-0.4,0.1-0.6,0.1c-0.1,0-0.2,0.1-0.2,0.1c0,0.1,0.1,0.2,0.3,0.2c0.6,0,1.8-0.1,1.9-0.1c0.1,0,1.3,0.1,2.4,0.1
	c0.2,0,0.3-0.1,0.3-0.2c0-0.1,0-0.1-0.2-0.1c-0.2,0-0.6,0-0.9-0.1c-0.6-0.1-0.7-0.5-0.8-1.1c-0.1-0.8-0.1-2.4-0.1-4.2V403.5z
	 M341.1,398.7l2.5,0c1.9,0,2.3,0.5,2.4,1.1l0,0.2c0,0.3,0.1,0.3,0.2,0.3c0.1,0,0.1-0.1,0.1-0.3c0-0.2,0.1-1.6,0.1-2.2
	c0-0.1,0-0.2-0.1-0.2c-0.1,0-0.3,0.1-0.5,0.1c-0.3,0.1-0.8,0.1-1.4,0.1H337c-0.2,0-1,0-1.6-0.1c-0.5,0-0.7-0.2-0.9-0.2
	c-0.1,0-0.2,0.3-0.2,0.4c0,0.2-0.4,1.8-0.4,2c0,0.1,0,0.2,0.1,0.2c0.1,0,0.1,0,0.2-0.2c0.1-0.1,0.1-0.3,0.3-0.6
	c0.3-0.5,0.8-0.6,2-0.6l2.9,0v8.3c0,1.9,0,3.4-0.1,4.2c-0.1,0.6-0.2,1-0.6,1.1c-0.2,0-0.4,0.1-0.6,0.1c-0.1,0-0.2,0.1-0.2,0.1
	c0,0.1,0.1,0.2,0.3,0.2c0.6,0,1.8-0.1,1.9-0.1c0.1,0,1.3,0.1,2.4,0.1c0.2,0,0.3-0.1,0.3-0.2c0-0.1,0-0.1-0.2-0.1
	c-0.2,0-0.6,0-0.9-0.1c-0.6-0.1-0.7-0.5-0.8-1.1c-0.1-0.8-0.1-2.4-0.1-4.2V398.7z M352.1,403.5c0-3.1,0-3.6,0-4.2
	c0-0.7,0.2-1,0.7-1.1c0.2,0,0.3-0.1,0.5-0.1c0.1,0,0.2,0,0.2-0.1c0-0.1-0.1-0.2-0.3-0.2c-0.6,0-1.8,0.1-1.9,0.1
	c-0.1,0-1.3-0.1-2-0.1c-0.2,0-0.3,0-0.3,0.2c0,0.1,0.1,0.1,0.2,0.1c0.1,0,0.4,0,0.6,0.1c0.4,0.1,0.6,0.4,0.7,1.1c0,0.6,0,1.2,0,4.2
	v3.5c0,1.9,0,3.4-0.1,4.2c-0.1,0.6-0.2,1-0.6,1.1c-0.2,0-0.4,0.1-0.6,0.1c-0.1,0-0.2,0.1-0.2,0.1c0,0.1,0.1,0.2,0.3,0.2
	c0.6,0,1.8-0.1,1.9-0.1c0.1,0,1.3,0.1,2.4,0.1c0.2,0,0.3-0.1,0.3-0.2c0-0.1,0-0.1-0.2-0.1c-0.2,0-0.6,0-0.9-0.1
	c-0.6-0.1-0.7-0.5-0.8-1.1c-0.1-0.8-0.1-2.4-0.1-4.2V403.5z M369.7,398.7l2.5,0c1.9,0,2.3,0.5,2.4,1.1l0,0.2c0,0.3,0.1,0.3,0.2,0.3
	c0.1,0,0.1-0.1,0.1-0.3c0-0.2,0.1-1.6,0.1-2.2c0-0.1,0-0.2-0.1-0.2c-0.1,0-0.3,0.1-0.5,0.1c-0.3,0.1-0.8,0.1-1.4,0.1h-7.3
	c-0.2,0-1,0-1.6-0.1c-0.5,0-0.7-0.2-0.9-0.2c-0.1,0-0.2,0.3-0.2,0.4c0,0.2-0.4,1.8-0.4,2c0,0.1,0,0.2,0.1,0.2c0.1,0,0.1,0,0.2-0.2
	c0.1-0.1,0.1-0.3,0.3-0.6c0.3-0.5,0.8-0.6,2-0.6l2.9,0v8.3c0,1.9,0,3.4-0.1,4.2c-0.1,0.6-0.2,1-0.6,1.1c-0.2,0-0.4,0.1-0.6,0.1
	c-0.1,0-0.2,0.1-0.2,0.1c0,0.1,0.1,0.2,0.3,0.2c0.6,0,1.8-0.1,1.9-0.1s1.3,0.1,2.4,0.1c0.2,0,0.3-0.1,0.3-0.2c0-0.1,0-0.1-0.2-0.1
	c-0.2,0-0.6,0-0.9-0.1c-0.6-0.1-0.7-0.5-0.8-1.1c-0.1-0.8-0.1-2.4-0.1-4.2V398.7z M379,406.9c0,1.9,0,3.4-0.1,4.2
	c-0.1,0.6-0.2,1-0.6,1.1c-0.2,0-0.4,0.1-0.6,0.1c-0.1,0-0.2,0.1-0.2,0.1c0,0.1,0.1,0.2,0.3,0.2c0.3,0,0.7,0,1.1,0c0.4,0,0.7,0,0.8,0
	c0.3,0,0.8,0,1.5,0.1c0.8,0,1.8,0.1,3.3,0.1c0.8,0,0.9,0,1.1-0.5c0.1-0.4,0.3-1.7,0.3-1.9c0-0.1,0-0.3-0.1-0.3
	c-0.1,0-0.1,0.1-0.2,0.3c-0.1,0.8-0.4,1.2-0.9,1.4c-0.5,0.2-1.4,0.2-1.9,0.2c-1.9,0-2.2-0.3-2.3-1.6c0-0.4,0-2.7,0-3.4v-1.7
	c0-0.1,0-0.1,0.1-0.1c0.3,0,2.3,0,2.8,0.1c0.8,0.1,0.9,0.4,1,0.7c0.1,0.3,0.1,0.4,0.1,0.6c0,0.1,0,0.2,0.1,0.2
	c0.1,0,0.1-0.2,0.1-0.4c0-0.1,0-0.9,0.1-1.3c0.1-0.6,0.2-1,0.2-1.1c0-0.1,0-0.2-0.1-0.2c-0.1,0-0.2,0.1-0.3,0.3
	c-0.2,0.2-0.4,0.2-0.9,0.3c-0.4,0-2.9,0-3.1,0c-0.1,0-0.1-0.1-0.1-0.2v-5.4c0-0.1,0-0.2,0.1-0.2c0.2,0,2.4,0,2.7,0.1
	c1.1,0.1,1.3,0.4,1.4,0.7c0.1,0.2,0.1,0.6,0.1,0.7c0,0.2,0,0.3,0.2,0.3c0.1,0,0.1-0.1,0.1-0.2c0-0.2,0.1-1.1,0.1-1.3
	c0.1-0.5,0.2-0.8,0.2-0.9c0-0.1,0-0.2-0.1-0.2c-0.1,0-0.2,0.1-0.3,0.1c-0.2,0-0.5,0.1-0.8,0.1c-0.4,0-4.4,0-4.5,0l-0.8,0
	c-0.4,0-1,0-1.4,0c-0.2,0-0.3,0-0.3,0.2c0,0.1,0.1,0.1,0.2,0.1c0.2,0,0.5,0,0.7,0.1c0.6,0.1,0.8,0.4,0.8,1.1c0,0.6,0,1.2,0,4.2
	V406.9z M391,406.9c0,1.9,0,3.4-0.1,4.2c-0.1,0.6-0.2,1-0.6,1.1c-0.2,0-0.4,0.1-0.6,0.1c-0.1,0-0.2,0.1-0.2,0.1
	c0,0.1,0.1,0.2,0.3,0.2c0.6,0,1.7-0.1,1.9-0.1s1.3,0.1,2.3,0.1c0.2,0,0.3-0.1,0.3-0.2c0-0.1,0-0.1-0.2-0.1c-0.2,0-0.5,0-0.8-0.1
	c-0.6-0.1-0.7-0.5-0.8-1.1c-0.1-0.8-0.1-2.4-0.1-4.2V405h0.1c0.9,1.2,5.1,5.6,6,6.4c0.8,0.7,1.3,1.1,2.4,1.2c0.4,0,0.8,0,1.3,0h1
	c0.3,0,0.4-0.1,0.4-0.2c0-0.1-0.1-0.1-0.3-0.1c-0.1,0-0.7,0-1.2-0.3c-0.9-0.4-1.3-0.7-2.9-2.2c-0.8-0.7-4.9-5-5.4-5.5
	c0.4-0.5,3.8-3.8,4.3-4.3c0.9-0.8,1.3-1.3,2.1-1.7c0.4-0.2,0.8-0.3,1.1-0.3c0.2,0,0.2,0,0.2-0.1s-0.1-0.1-0.3-0.1
	c-0.5,0-1.8,0.1-1.9,0.1c-0.5,0-1.1-0.1-1.5-0.1c-0.1,0-0.2,0-0.2,0.1c0,0.1,0.1,0.1,0.2,0.2c0.2,0.1,0.3,0.2,0.3,0.4
	c0,0.3-0.5,0.8-1.1,1.4c-0.7,0.8-4.2,4.4-4.6,4.7h-0.1v-1.2c0-3.1,0-3.6,0-4.2c0-0.7,0.2-1,0.7-1.1c0.2,0,0.3-0.1,0.5-0.1
	c0.1,0,0.2,0,0.2-0.1c0-0.1-0.1-0.2-0.3-0.2c-0.6,0-1.7,0.1-1.9,0.1c-0.1,0-1.3-0.1-2.2-0.1c-0.2,0-0.3,0-0.3,0.2
	c0,0.1,0.1,0.1,0.1,0.1c0.2,0,0.5,0,0.7,0.1c0.6,0.1,0.8,0.4,0.8,1.1c0,0.6,0,1.2,0,4.2V406.9z M406,400.6c0.6,0.7,2.8,3.2,5.1,5.6
	c2.1,2.2,4.9,5.1,5.1,5.3c1,1,1.3,1.3,1.4,1.3c0.1,0,0.2-0.1,0.2-1.4l0-11.5c0-1.2,0.1-1.6,0.7-1.7c0.2-0.1,0.4-0.1,0.5-0.1
	c0.1,0,0.2-0.1,0.2-0.1c0-0.1-0.1-0.1-0.4-0.1c-0.8,0-1.4,0.1-1.7,0.1c-0.2,0-1.2-0.1-2-0.1c-0.2,0-0.4,0-0.4,0.1
	c0,0.1,0,0.1,0.1,0.1c0.2,0,0.6,0,1,0.1c0.6,0.2,0.7,0.6,0.8,1.9l0.2,10c-0.6-0.6-2.8-3-4.7-5.1c-3-3.2-5.9-6.4-6.2-6.7
	c-0.2-0.2-0.5-0.6-0.7-0.6c-0.2,0-0.2,0.2-0.2,1l0,11.2c0,1.8-0.1,2.3-0.6,2.5c-0.3,0.1-0.6,0.1-0.8,0.1c-0.1,0-0.2,0-0.2,0.1
	c0,0.1,0.1,0.2,0.3,0.2c0.9,0,1.7-0.1,1.9-0.1c0.2,0,1,0.1,2.1,0.1c0.2,0,0.4,0,0.4-0.2c0-0.1-0.1-0.1-0.2-0.1c-0.2,0-0.6,0-1-0.1
	c-0.5-0.2-0.7-0.7-0.8-2.3L406,400.6z M429.3,397.5c-5.4,0-7.7,4.5-7.7,7.7c0,3.5,2.2,7.7,7.6,7.7c4.7,0,7.8-3.6,7.8-8
	C437,400.3,433.7,397.5,429.3,397.5 M429.7,412.2c-3.5,0-6.3-2.9-6.3-7.5c0-4.3,2.4-6.4,5.7-6.4c3.1,0,6,2.5,6,7.2
	C435.1,411.1,431.5,412.2,429.7,412.2 M442.8,403.5c0-3.1,0-3.6,0-4.2c0-0.7,0.2-1,0.8-1.1c0.2,0,0.5-0.1,0.6-0.1
	c0.1,0,0.2,0,0.2-0.1c0-0.1-0.1-0.2-0.3-0.2c-0.6,0-2,0.1-2.1,0.1c-0.1,0-1.3-0.1-2.2-0.1c-0.2,0-0.3,0-0.3,0.2
	c0,0.1,0.1,0.1,0.2,0.1c0.2,0,0.5,0,0.7,0.1c0.6,0.1,0.8,0.4,0.8,1.1c0,0.6,0,1.2,0,4.2v3.5c0,1.9,0,3.4-0.1,4.2
	c-0.1,0.6-0.2,1-0.6,1.1c-0.2,0-0.4,0.1-0.6,0.1c-0.1,0-0.2,0.1-0.2,0.1c0,0.1,0.1,0.2,0.3,0.2c0.3,0,0.7,0,1.1,0c0.4,0,0.7,0,0.8,0
	c0.6,0,1.2,0,2,0.1c0.8,0,1.8,0.1,3.2,0.1c1,0,1.1-0.1,1.2-0.5c0.2-0.6,0.3-1.7,0.3-2c0-0.2,0-0.3-0.1-0.3c-0.1,0-0.2,0.1-0.2,0.3
	c-0.1,0.4-0.3,0.9-0.5,1.2c-0.5,0.6-1.3,0.6-2.4,0.6c-1.5,0-2-0.1-2.3-0.4c-0.4-0.4-0.4-1.6-0.4-4.5V403.5z M457.8,397.5
	c-5.4,0-7.7,4.5-7.7,7.7c0,3.5,2.2,7.7,7.6,7.7c4.7,0,7.8-3.6,7.8-8C465.5,400.3,462.2,397.5,457.8,397.5 M458.2,412.2
	c-3.5,0-6.3-2.9-6.3-7.5c0-4.3,2.4-6.4,5.7-6.4c3.1,0,6,2.5,6,7.2C463.6,411.1,459.9,412.2,458.2,412.2 M479.5,411
	c0,0.3-0.1,0.5-0.4,0.7c-0.5,0.3-1.5,0.4-2.2,0.4c-1.8,0-3.6-0.6-5.1-2.1c-0.7-0.7-2.1-2.7-2.1-5.4c0-2.3,0.8-4.1,1.9-5
	c1.5-1.2,3-1.3,4.2-1.3c2.5,0,4.1,0.8,4.6,1.6c0.3,0.5,0.4,1,0.4,1.3c0,0.2,0,0.3,0.1,0.3c0.1,0,0.2-0.1,0.2-0.4
	c0-2,0.1-2.5,0.1-2.8c0-0.1,0-0.2-0.2-0.2c-0.5,0-1.2-0.1-1.6-0.2c-0.4-0.1-1.8-0.3-3-0.3c-1.5,0-3.4,0.1-5.2,1.2
	c-1.7,1.1-3.3,3.3-3.3,6.4c0,2.4,1.1,4.5,2.3,5.6c2.2,1.9,5,2.1,6.4,2.1c1.1,0,2.9-0.2,4.2-0.9c0.2-0.1,0.3-0.2,0.3-1.1v-2.2
	c0-0.8,0-1.4,0-2c0-0.7,0.2-1,0.7-1.1c0.2,0,0.4-0.1,0.5-0.1c0.1,0,0.2,0,0.2-0.1c0-0.1-0.1-0.2-0.3-0.2c-0.6,0-1.8,0.1-1.9,0.1
	c-0.1,0-1.3-0.1-2.2-0.1c-0.2,0-0.3,0-0.3,0.2c0,0.1,0.1,0.1,0.2,0.1c0.2,0,0.5,0,0.7,0.1c0.8,0.2,0.9,0.4,0.9,2V411z M488.7,403.5
	c0-3.1,0-3.6,0-4.2c0-0.7,0.2-1,0.7-1.1c0.2,0,0.3-0.1,0.5-0.1c0.1,0,0.2,0,0.2-0.1c0-0.1-0.1-0.2-0.3-0.2c-0.6,0-1.8,0.1-1.9,0.1
	s-1.3-0.1-2-0.1c-0.2,0-0.3,0-0.3,0.2c0,0.1,0.1,0.1,0.2,0.1c0.1,0,0.4,0,0.6,0.1c0.4,0.1,0.6,0.4,0.7,1.1c0,0.6,0,1.2,0,4.2v3.5
	c0,1.9,0,3.4-0.1,4.2c-0.1,0.6-0.2,1-0.6,1.1c-0.2,0-0.4,0.1-0.6,0.1c-0.1,0-0.2,0.1-0.2,0.1c0,0.1,0.1,0.2,0.3,0.2
	c0.6,0,1.8-0.1,1.9-0.1s1.3,0.1,2.4,0.1c0.2,0,0.3-0.1,0.3-0.2c0-0.1,0-0.1-0.2-0.1c-0.2,0-0.6,0-0.9-0.1c-0.6-0.1-0.7-0.5-0.8-1.1
	c-0.1-0.8-0.1-2.4-0.1-4.2V403.5z M502.1,406.9c0,1.9,0,3.4-0.1,4.2c-0.1,0.6-0.2,1-0.6,1.1c-0.2,0-0.4,0.1-0.6,0.1
	c-0.1,0-0.2,0.1-0.2,0.1c0,0.1,0.1,0.2,0.3,0.2c0.6,0,1.8-0.1,1.9-0.1c0.1,0,1.3,0.1,2.4,0.1c0.2,0,0.3-0.1,0.3-0.2
	c0-0.1,0-0.1-0.2-0.1c-0.2,0-0.6,0-0.9-0.1c-0.6-0.1-0.7-0.5-0.8-1.1c-0.1-0.8-0.1-2.4-0.1-4.2v-8.1c0-0.2,0-0.3,0.2-0.4
	c0.2-0.1,0.5-0.1,0.8-0.1c0.4,0,1.6-0.1,2.7,1c1,1.1,1.1,2.4,1.1,3c0,1.8-1.5,3.2-3.4,3.2c-0.4,0-0.5,0-0.5,0.2
	c0,0.1,0.1,0.1,0.2,0.1c0.1,0,0.3,0,0.4,0c2.8,0,4.8-1.9,4.8-4.7c0-1-0.6-1.9-1-2.3c-0.3-0.3-1.2-1.1-3.6-1.1c-0.9,0-2,0.1-2.5,0.1
	c-0.2,0-1.3-0.1-2.2-0.1c-0.2,0-0.3,0-0.3,0.2c0,0.1,0.1,0.1,0.2,0.1c0.2,0,0.5,0,0.7,0.1c0.6,0.1,0.8,0.4,0.8,1.1
	c0,0.6,0,1.2,0,4.2V406.9z M514.4,406.9c0,1.9,0,3.4-0.1,4.2c-0.1,0.6-0.2,1-0.6,1.1c-0.2,0-0.4,0.1-0.6,0.1c-0.1,0-0.2,0.1-0.2,0.1
	c0,0.1,0.1,0.2,0.3,0.2c0.3,0,0.7,0,1.1,0c0.4,0,0.7,0,0.8,0c0.3,0,0.8,0,1.5,0.1c0.8,0,1.8,0.1,3.3,0.1c0.8,0,0.9,0,1.1-0.5
	c0.1-0.4,0.3-1.7,0.3-1.9c0-0.1,0-0.3-0.1-0.3c-0.1,0-0.1,0.1-0.2,0.3c-0.1,0.8-0.4,1.2-0.9,1.4c-0.5,0.2-1.4,0.2-1.9,0.2
	c-1.9,0-2.2-0.3-2.3-1.6c0-0.4,0-2.7,0-3.4v-1.7c0-0.1,0-0.1,0.1-0.1c0.3,0,2.3,0,2.8,0.1c0.8,0.1,0.9,0.4,1,0.7
	c0.1,0.3,0.1,0.4,0.1,0.6c0,0.1,0,0.2,0.1,0.2c0.1,0,0.1-0.2,0.1-0.4c0-0.1,0-0.9,0.1-1.3c0.1-0.6,0.2-1,0.2-1.1
	c0-0.1,0-0.2-0.1-0.2c-0.1,0-0.2,0.1-0.3,0.3c-0.2,0.2-0.4,0.2-0.9,0.3c-0.4,0-2.9,0-3.1,0c-0.1,0-0.1-0.1-0.1-0.2v-5.4
	c0-0.1,0-0.2,0.1-0.2c0.2,0,2.4,0,2.7,0.1c1.1,0.1,1.3,0.4,1.4,0.7c0.1,0.2,0.1,0.6,0.1,0.7c0,0.2,0,0.3,0.2,0.3
	c0.1,0,0.1-0.1,0.1-0.2c0-0.2,0.1-1.1,0.1-1.3c0.1-0.5,0.2-0.8,0.2-0.9c0-0.1,0-0.2-0.1-0.2c-0.1,0-0.2,0.1-0.3,0.1
	c-0.2,0-0.5,0.1-0.8,0.1c-0.4,0-4.4,0-4.5,0l-0.8,0c-0.4,0-1,0-1.4,0c-0.2,0-0.3,0-0.3,0.2c0,0.1,0.1,0.1,0.1,0.1
	c0.2,0,0.5,0,0.7,0.1c0.6,0.1,0.8,0.4,0.8,1.1c0,0.6,0,1.2,0,4.2V406.9z M530.5,398.7l2.5,0c1.9,0,2.3,0.5,2.4,1.1l0,0.2
	c0,0.3,0.1,0.3,0.2,0.3c0.1,0,0.1-0.1,0.1-0.3c0-0.2,0.1-1.6,0.1-2.2c0-0.1,0-0.2-0.1-0.2c-0.1,0-0.3,0.1-0.5,0.1
	c-0.3,0.1-0.8,0.1-1.4,0.1h-7.3c-0.2,0-1,0-1.6-0.1c-0.5,0-0.7-0.2-0.9-0.2c-0.1,0-0.2,0.3-0.2,0.4c0,0.2-0.4,1.8-0.4,2
	c0,0.1,0,0.2,0.1,0.2c0.1,0,0.1,0,0.2-0.2c0.1-0.1,0.1-0.3,0.3-0.6c0.3-0.5,0.8-0.6,2-0.6l2.9,0v8.3c0,1.9,0,3.4-0.1,4.2
	c-0.1,0.6-0.2,1-0.6,1.1c-0.2,0-0.4,0.1-0.6,0.1c-0.1,0-0.2,0.1-0.2,0.1c0,0.1,0.1,0.2,0.3,0.2c0.6,0,1.8-0.1,1.9-0.1
	s1.3,0.1,2.4,0.1c0.2,0,0.3-0.1,0.3-0.2c0-0.1,0-0.1-0.2-0.1c-0.2,0-0.6,0-0.9-0.1c-0.6-0.1-0.7-0.5-0.8-1.1
	c-0.1-0.8-0.1-2.4-0.1-4.2V398.7z M539.9,406.9c0,1.9,0,3.4-0.1,4.2c-0.1,0.6-0.2,1-0.6,1.1c-0.2,0-0.4,0.1-0.6,0.1
	c-0.1,0-0.2,0.1-0.2,0.1c0,0.1,0.1,0.2,0.3,0.2c0.6,0,1.8-0.1,1.8-0.1c0.1,0,1.3,0.1,2.4,0.1c0.2,0,0.3-0.1,0.3-0.2
	c0-0.1,0-0.1-0.2-0.1c-0.2,0-0.6,0-0.9-0.1c-0.6-0.1-0.7-0.5-0.8-1.1c-0.1-0.8-0.1-2.4-0.1-4.2v-0.5c0-0.1,0-0.2,0.1-0.2l2.4,0
	c0.1,0,0.2,0,0.3,0.1c0.4,0.5,1.3,1.8,2.1,2.9c1.1,1.5,1.8,2.4,2.6,2.9c0.5,0.3,1,0.4,2.1,0.4h1.4c0.4,0,0.5,0,0.5-0.2
	c0-0.1-0.1-0.1-0.2-0.1c-0.1,0-0.4,0-0.8-0.1c-0.5-0.1-1.3-0.3-2.4-1.4c-1.1-1.2-2.5-3-4.1-5c1.8-1.6,2.4-3.1,2.4-4.5
	c0-1.4-0.9-2.3-1.3-2.7c-1-0.7-2.4-0.9-3.6-0.9c-0.6,0-2.1,0.1-2.3,0.1c-0.1,0-1.3-0.1-2.2-0.1c-0.2,0-0.3,0-0.3,0.2
	c0,0.1,0.1,0.1,0.2,0.1c0.2,0,0.5,0,0.7,0.1c0.6,0.1,0.8,0.4,0.8,1.1c0,0.6,0,1.2,0,4.2V406.9z M541.4,398.8c0-0.1,0.1-0.2,0.2-0.2
	c0.2-0.1,0.7-0.1,1.3-0.1c2.1,0,3.4,1.5,3.4,3.9c0,1.5-0.5,2.5-1.2,3c-0.4,0.3-1,0.4-1.5,0.4c-0.9,0-1.8-0.1-2.1-0.3
	c-0.1-0.1-0.1-0.1-0.1-0.2V398.8z M560.4,397.5c-5.4,0-7.7,4.5-7.7,7.7c0,3.5,2.2,7.7,7.6,7.7c4.7,0,7.8-3.6,7.8-8
	C568.1,400.3,564.8,397.5,560.4,397.5 M560.8,412.2c-3.5,0-6.3-2.9-6.3-7.5c0-4.3,2.4-6.4,5.7-6.4c3.1,0,6,2.5,6,7.2
	C566.2,411.1,562.6,412.2,560.8,412.2 M572.6,400.6c0.6,0.7,2.8,3.2,5.1,5.6c2.1,2.2,4.9,5.1,5.1,5.3c1,1,1.3,1.3,1.4,1.3
	c0.1,0,0.2-0.1,0.2-1.4l0-11.5c0-1.2,0.1-1.6,0.7-1.7c0.2-0.1,0.4-0.1,0.5-0.1c0.1,0,0.2-0.1,0.2-0.1c0-0.1-0.1-0.1-0.4-0.1
	c-0.8,0-1.5,0.1-1.7,0.1c-0.2,0-1.2-0.1-2-0.1c-0.2,0-0.4,0-0.4,0.1c0,0.1,0,0.1,0.1,0.1c0.2,0,0.6,0,1,0.1c0.6,0.2,0.7,0.6,0.8,1.9
	l0.2,10c-0.6-0.6-2.8-3-4.7-5.1c-3-3.2-5.9-6.4-6.2-6.7c-0.2-0.2-0.5-0.6-0.7-0.6c-0.2,0-0.2,0.2-0.2,1l0,11.2
	c0,1.8-0.1,2.3-0.6,2.5c-0.3,0.1-0.6,0.1-0.8,0.1c-0.1,0-0.2,0-0.2,0.1c0,0.1,0.1,0.2,0.3,0.2c0.9,0,1.7-0.1,1.9-0.1
	c0.2,0,1,0.1,2.1,0.1c0.2,0,0.3,0,0.3-0.2c0-0.1-0.1-0.1-0.2-0.1c-0.2,0-0.6,0-1-0.1c-0.5-0.2-0.7-0.7-0.8-2.3L572.6,400.6z
	 M589.2,410.5c-0.4,1-0.7,1.7-1.6,1.8c-0.2,0-0.4,0-0.6,0c-0.1,0-0.2,0-0.2,0.1c0,0.1,0.1,0.2,0.4,0.2c0.9,0,2-0.1,2.2-0.1
	c0.2,0,1.1,0.1,1.5,0.1c0.2,0,0.3,0,0.3-0.2c0-0.1-0.1-0.1-0.2-0.1h-0.2c-0.3,0-0.7-0.2-0.7-0.6c0-0.4,0.1-0.8,0.3-1.3l1.2-3.5
	c0-0.1,0.1-0.2,0.2-0.2h4.2c0.1,0,0.1,0,0.2,0.1l1.8,4.8c0.1,0.3,0,0.5-0.1,0.5c-0.1,0-0.1,0.1-0.1,0.1c0,0.1,0.2,0.1,0.6,0.1
	c1.4,0,2.8,0,3.1,0c0.2,0,0.4,0,0.4-0.2c0-0.1-0.1-0.1-0.2-0.1c-0.2,0-0.5,0-0.8-0.1c-0.4-0.1-1-0.4-1.7-2.2
	c-1.2-3-4.3-11.1-4.6-11.8c-0.2-0.6-0.3-0.7-0.4-0.7c-0.1,0-0.2,0.1-0.4,0.8L589.2,410.5z M592,406.1c-0.1,0-0.1,0-0.1-0.1l1.7-5.3
	c0.1-0.3,0.2-0.3,0.3,0l1.9,5.3c0,0.1,0,0.1-0.1,0.1H592z M603.5,412.4c0.8,0.4,1.7,0.5,2.6,0.5c1.1,0,2.1-0.2,3-0.8
	c1.4-1,1.7-2.4,1.7-3.2c0-1.6-0.5-2.8-2.9-4.6l-0.6-0.4c-1.9-1.5-2.4-2.2-2.4-3.3c0-1.4,1.1-2.3,2.4-2.3c1.8,0,2.3,0.8,2.5,1
	c0.1,0.2,0.2,0.7,0.3,1c0,0.2,0,0.3,0.2,0.3c0.1,0,0.1-0.1,0.1-0.4c0-1.3,0.1-2,0.1-2.1c0-0.1,0-0.1-0.2-0.1c-0.2,0-0.3,0-0.7-0.1
	c-0.5-0.1-1.1-0.2-1.8-0.2c-2.5,0-4.1,1.4-4.1,3.5c0,1.3,0.5,2.5,2.5,4.2l0.9,0.7c1.7,1.4,2.3,2.2,2.3,3.5c0,1.3-0.9,2.6-2.8,2.6
	c-1.3,0-2.6-0.5-2.9-2c-0.1-0.3-0.1-0.5-0.1-0.7c0-0.2,0-0.2-0.1-0.2c-0.1,0-0.1,0.1-0.2,0.3c0,0.3-0.1,1.1-0.1,2.1
	C603.2,412.2,603.2,412.2,603.5,412.4"/>
<path class="st2" d="M364.6,237.1v5l-0.8,0.2c-19,5-19.8,6.4-20,39.9v3.3h0v33.6c0.5,22.5-2.2,34-14,46.5
	c-11.9,12.6-27.7,13.7-37.1,13.7c-16.8,0-26.9-2.8-38.7-14.7c-12.4-12.4-12.8-25.9-12.6-40.9c0-2,0.1-4,0.1-6.1v-24.4h0v-13.8
	c0.9-32-4.2-33.6-19.2-36.1c-1.9-0.3-4.9-0.7-7-1l-0.9-0.1v-5.1h73.7v5.2l-1,0.1c-26.1,2.3-26.1,8.3-26.1,33.8v9.4h0V314
	c0,1.4,0,2.8,0,4.4c-0.1,12.1,0.3,25.9,5.9,34.6c9.7,15,26.5,19.2,37.1,16.5c18.4-4.7,30.6-14.2,30.6-49.5l-0.2-26.7h0l-0.2-28.9
	c-0.5-17.4-6.3-19.3-21.4-21.4c-2.7-0.4-8.3-0.7-8.3-0.7v-5.1H364.6z M428.3,237.2L428.3,237.2l-51.7,0l-6.7,38.6l5.8,0l0,0
	c1.8-12.6,9.4-20.6,13.5-23.7c10-7.5,17.3-8.3,38.8-7.9l0.2,0v88.2c0,36.5-2.2,41.1-29.7,41.9l-1.1,0v4.7h79.9v-4.7l-1.1,0
	c-27.5-0.8-29.7-5.4-29.7-41.9v-88.2c21.6-0.4,29,0.4,39,7.9c4.1,3.1,11.7,11,13.5,23.7l0,0l5.8,0l-6.7-38.6H428.3z M603.4,241.8
	c-10.1-5.2-29.3-4.5-40.8-4.7H510l0.1,5l0,0c26.1,2.3,27.8,6.3,27,35.5v61.8c-1,9.6,1.2,25.5-9,31.5c-4.8,2.8-10.8,3.2-18.2,3.5
	l-3.6,0.1v4.7h79.9v-4.7l-2,0c-24.4-0.8-27.9-5-28.7-32.2l-0.1-98c10.5,0,20.6-0.2,24.1,0.7c20,5.1,27.5,19.2,28.9,33.9
	c0.9,9.7-6.5,36.6-36.5,36.5l0,0l0,5.6v0c8,0,27.3-4.7,37.6-11.7c8.1-5.5,17.1-13.5,17-31.8C626.4,263,615.5,248,603.4,241.8"/>
</svg>
